<?xml version="1.0" encoding="utf-8"?>
<svg viewBox="0 0 430 797" xmlns="http://www.w3.org/2000/svg">
  <ellipse style="stroke-width: 2px; stroke: rgb(255, 255, 255); fill: rgba(255, 255, 255, 0);" cx="215" cy="49.277" rx="10.277" ry="10.277"/>
  <path style="fill: rgba(0, 0, 0, 0); stroke: rgb(255, 255, 255);" d="M 175 10 L 180 15 L 250 15 L 255 10"/>
  <path style="stroke-width: 3px; fill: rgba(0, 0, 0, 0); stroke: rgb(255, 255, 255);" d="M 403 397.917 L 403 730.833 C 403 752.924 385.091 770.833 363 770.833 L 67 770.833 C 44.909 770.833 27 752.924 27 730.833 L 27 397.917 L 27 65 C 27 42.909 44.909 25 67 25 L 363 25 C 385.091 25 403 42.909 403 65 L 403 397.917 Z"/>
  <path style="stroke-width: 3px; fill: rgba(0, 0, 0, 0); stroke: rgb(255, 255, 255);" d="M 2.5 397.917 L 2.5 65 C 2.5 29.93 30.93 1.5 66 1.5 L 364 1.5 C 399.07 1.5 427.5 29.93 427.5 65 L 427.5 397.917 L 427.5 730.833 C 427.5 765.903 399.07 794.333 364 794.333 L 66 794.333 C 30.93 794.333 2.5 765.903 2.5 730.833 L 2.5 397.917 Z"/>
  <path style="stroke-width: 2px; fill: rgba(0, 0, 0, 0); stroke: rgb(255, 255, 255);" d="M 418.001 397.917 L 418.003 730.833 C 418.003 761.209 393.373 785.833 363.003 785.833 L 67 785.833 C 36.624 785.833 12 761.209 12 730.833 L 12 397.917 L 12 65 C 12 34.624 36.624 10 67 10 L 363 10 C 393.376 10 418 34.624 418 65 L 418.001 397.917 Z"/>
</svg>