<?xml version="1.0" encoding="utf-8"?>
<svg viewBox="1216.895 156.456 59.266 59.148" width="24.892mm" height="24.842mm" xmlns="http://www.w3.org/2000/svg">
  <g style="" transform="matrix(0.122331, 0, 0, 0.123475, 1215.945801, 155.161758)">
    <path id="path-13" style="stroke-width: 0.0953171; stroke-linecap: round; stroke-miterlimit: 6.3; fill-opacity: 1; fill: rgb(170, 0, 255);" d="M 492.237 152.725 L 309.847 161.818 L 309.847 36.113 C 368.928 27.814 424.349 20.028 492.237 10.485 Z"/>
    <path id="path-14" style="stroke-width: 0.0953171; stroke-linecap: round; stroke-miterlimit: 6.3; fill-opacity: 1; fill: rgb(170, 0, 255);" d="M 117.665 304.19 L 7.763 299.202 L 7.763 200.798 L 117.665 195.81 Z"/>
    <path id="path-15" style="stroke-width: 0.0953171; stroke-linecap: round; stroke-miterlimit: 6.3; fill-opacity: 1; fill: rgb(170, 0, 255);" d="M 492.237 489.515 L 309.847 463.887 L 309.847 338.182 L 492.237 347.275 Z"/>
    <path id="path-16" style="stroke-width: 0.134799; stroke-linecap: round; stroke-miterlimit: 6.3; fill-opacity: 1; fill: rgb(51, 0, 76);" d="M 142.815 194.678 L 492.237 178.842 L 492.237 321.158 L 142.815 305.322 Z"/>
    <path id="path-17" style="stroke-width: 0.134799; stroke-linecap: round; stroke-miterlimit: 6.3; fill-opacity: 1; fill: rgb(102, 0, 153);" d="M 7.763 323.108 L 282.909 336.835 L 282.909 460.102 L 7.763 421.446 Z"/>
    <path id="path-18" style="stroke-width: 0.134799; stroke-linecap: round; stroke-miterlimit: 6.3; fill-opacity: 1; fill: rgb(102, 0, 153);" d="M 7.763 78.554 L 282.909 39.898 L 282.909 163.165 L 7.763 176.891 Z"/>
  </g>
</svg>