<?xml version="1.0" encoding="utf-8"?>
<svg viewBox="559.739 156.03 247.015 246.548" width="103.746mm" height="103.55mm" xmlns="http://www.w3.org/2000/svg">
  <g style="" transform="matrix(0.497538, 0, 0, 0.50027, 558.861572, 154.236938)">
    <path id="path-1" style="stroke-width: 0.0953171; stroke-linecap: round; stroke-miterlimit: 6.3; fill-opacity: 1; fill: rgb(170, 0, 255);" d="M 498.237 158.431 L 303.847 168.124 L 303.847 30.899 C 364.677 22.353 427.38 13.543 498.237 3.585 Z"/>
    <path id="path-2" style="stroke-width: 0.0953171; stroke-linecap: round; stroke-miterlimit: 6.3; fill-opacity: 1; fill: rgb(170, 0, 255);" d="M 123.665 310.466 L 1.763 304.938 L 1.763 195.062 L 123.665 189.534 Z"/>
    <path id="path-3" style="stroke-width: 0.0953171; stroke-linecap: round; stroke-miterlimit: 6.3; fill-opacity: 1; fill: rgb(170, 0, 255);" d="M 498.237 496.415 L 303.847 469.101 L 303.847 331.876 L 498.237 341.569 Z"/>
    <path id="path-4" style="stroke-width: 0.134799; stroke-linecap: round; stroke-miterlimit: 6.3; fill-opacity: 1; fill: rgb(51, 0, 76);" d="M 136.815 188.942 L 498.237 172.566 L 498.237 327.434 L 136.815 311.058 Z"/>
    <path id="path-5" style="stroke-width: 0.134799; stroke-linecap: round; stroke-miterlimit: 6.3; fill-opacity: 1; fill: rgb(102, 0, 153);" d="M 1.763 316.802 L 288.909 331.129 L 288.909 467.002 L 1.763 426.66 Z"/>
    <path id="path-6" style="stroke-width: 0.134799; stroke-linecap: round; stroke-miterlimit: 6.3; fill-opacity: 1; fill: rgb(102, 0, 153);" d="M 1.763 73.34 L 288.909 32.998 L 288.909 168.871 L 1.763 183.197 Z"/>
  </g>
</svg>