<?xml version="1.0" encoding="utf-8"?>
<svg viewBox="1009.637 156.03 122.015 121.548" width="51.246mm" height="51.05mm" xmlns="http://www.w3.org/2000/svg">
  <g style="" transform="matrix(0.248769, 0, 0, 0.250135, 1008.451965, 154.270706)">
    <path id="path-7" style="stroke-width: 0.0953171; stroke-linecap: round; stroke-miterlimit: 6.3; fill-opacity: 1; fill: #AA00FF;" d="M 495.237 155.578 L 306.847 164.971 L 306.847 33.506 C 366.843 25.078 425.826 16.791 495.237 7.035 Z"/>
    <path id="path-8" style="stroke-width: 0.0953171; stroke-linecap: round; stroke-miterlimit: 6.3; fill-opacity: 1; fill: #AA00FF;" d="M 120.665 307.328 L 4.763 302.07 L 4.763 197.93 L 120.665 192.672 Z"/>
    <path id="path-9" style="stroke-width: 0.0953171; stroke-linecap: round; stroke-miterlimit: 6.3; fill-opacity: 1; fill: #AA00FF;" d="M 495.237 492.965 L 306.847 466.494 L 306.847 335.029 L 495.237 344.422 Z"/>
    <path id="path-10" style="stroke-width: 0.134799; stroke-linecap: round; stroke-miterlimit: 6.3; fill-opacity: 1; fill: #AA00FF;" d="M 139.815 191.81 L 495.237 175.704 L 495.237 324.296 L 139.815 308.19 Z"/>
    <path id="path-11" style="stroke-width: 0.134799; stroke-linecap: round; stroke-miterlimit: 6.3; fill-opacity: 1; fill: #AA00FF;" d="M 4.763 319.955 L 285.909 333.982 L 285.909 463.552 L 4.763 424.053 Z"/>
    <path id="path-12" style="stroke-width: 0.134799; stroke-linecap: round; stroke-miterlimit: 6.3; fill-opacity: 1; fill: #AA00FF;" d="M 4.763 75.947 L 285.909 36.448 L 285.909 166.018 L 4.763 180.044 Z"/>
  </g>
</svg>