<?xml version="1.0" encoding="utf-8"?>
<svg viewBox="0 0 62 62" xmlns="http://www.w3.org/2000/svg">
  <path d="M 18 12 L 44 12 C 45.105 12 46 12.895 46 14 L 46 48 C 46 49.105 45.105 50 44 50 L 18 50 C 16.895 50 16 49.105 16 48 L 16 14 C 16 12.895 16.895 12 18 12 Z M 20 17 L 20 22 C 20 22.552 20.448 23 21 23 L 41 23 C 41.552 23 42 22.552 42 22 L 42 17 C 42 16.448 41.552 16 41 16 L 21 16 C 20.448 16 20 16.448 20 17 Z M 39.25 26 C 37.731 26 36.5 27.231 36.5 28.75 C 36.5 30.269 37.731 31.5 39.25 31.5 C 40.769 31.5 42 30.269 42 28.75 C 42 27.231 40.769 26 39.25 26 Z M 31 26 C 29.481 26 28.25 27.231 28.25 28.75 C 28.25 30.269 29.481 31.5 31 31.5 C 32.519 31.5 33.75 30.269 33.75 28.75 C 33.75 27.231 32.519 26 31 26 Z M 22.75 26 C 21.231 26 20 27.231 20 28.75 C 20 30.269 21.231 31.5 22.75 31.5 C 24.269 31.5 25.5 30.269 25.5 28.75 C 25.5 27.231 24.269 26 22.75 26 Z M 22.75 34 C 21.231 34 20 35.231 20 36.75 C 20 38.269 21.231 39.5 22.75 39.5 C 24.269 39.5 25.5 38.269 25.5 36.75 C 25.5 35.231 24.269 34 22.75 34 Z M 31 34 C 29.481 34 28.25 35.231 28.25 36.75 C 28.25 38.269 29.481 39.5 31 39.5 C 32.519 39.5 33.75 38.269 33.75 36.75 C 33.75 35.231 32.519 34 31 34 Z M 39.25 34 C 37.731 34 36.5 35.231 36.5 36.75 C 36.5 38.269 37.731 39.5 39.25 39.5 C 40.769 39.5 42 38.269 42 36.75 C 42 35.231 40.769 34 39.25 34 Z M 39.25 42 C 37.731 42 36.5 43.231 36.5 44.75 C 36.5 46.269 37.731 47.5 39.25 47.5 C 40.769 47.5 42 46.269 42 44.75 C 42 43.231 40.769 42 39.25 42 Z M 31 42 C 29.481 42 28.25 43.231 28.25 44.75 C 28.25 46.269 29.481 47.5 31 47.5 C 32.519 47.5 33.75 46.269 33.75 44.75 C 33.75 43.231 32.519 42 31 42 Z M 22.75 42 C 21.231 42 20 43.231 20 44.75 C 20 46.269 21.231 47.5 22.75 47.5 C 24.269 47.5 25.5 46.269 25.5 44.75 C 25.5 43.231 24.269 42 22.75 42 Z" style="fill: rgb(255, 255, 255);"/>
</svg>