<?xml version="1.0" encoding="utf-8"?>
<svg viewBox="0 0 62 62" xmlns="http://www.w3.org/2000/svg">
  <path d="M 43 10.506 L 53 10.506 L 53 20.506 L 49.767 17.273 L 35.768 31.268 L 34 33.035 L 32.232 31.268 L 25 24.036 L 9 40.036 L 9 32.964 L 25 16.964 L 26.768 18.732 L 34 25.965 L 46.232 13.738 Z M 53 52 L 48 52 L 48 22.574 L 49.766 20.808 L 53 24.042 Z M 46.5 52 L 41.5 52 L 41.5 29.072 L 46.5 24.074 Z M 40.002 52 L 35.002 52 L 35.002 35.568 L 37.535 33.036 L 40.002 30.57 Z M 33.5 52 L 28.5 52 L 28.5 31.072 L 33.5 36.072 Z M 27 52 L 22 52 L 22 30.571 L 25 27.571 L 27 29.571 Z M 20.5 52 L 15.5 52 L 15.5 37.071 L 20.5 32.071 Z M 14 52 L 9 52 L 9 43.572 L 14 38.572 Z" style="fill: rgb(255, 255, 255);"/>
</svg>