<?xml version="1.0" encoding="utf-8"?>
<svg viewBox="0 0 62 62" xmlns="http://www.w3.org/2000/svg">
  <path d="M 38.374 38.665 L 23.626 38.665 C 22.427 38.665 21.293 39.021 20.225 39.734 C 19.583 40.236 18.652 41.089 17.437 42.287 C 16.516 43.207 15.812 43.885 15.326 44.32 C 14.466 45.031 13.61 45.601 12.759 46.027 C 11.118 46.027 9.871 45.21 9.02 43.577 C 8.099 41.649 7.961 38.874 8.603 35.252 C 9.316 31.047 11.088 25.927 13.919 19.89 L 14.453 19.89 L 15.522 17.949 L 17.241 17.102 C 18.665 16.468 19.977 16.112 21.176 16.034 C 22.749 15.825 23.994 16.146 24.915 16.998 L 37.085 16.998 C 38.361 15.868 40.32 15.69 42.961 16.464 C 44.238 16.819 45.41 17.315 46.479 17.949 L 47.547 19.89 L 48.081 19.89 C 50.912 25.927 52.684 31.047 53.397 35.252 C 54.039 38.874 53.901 41.649 52.98 43.577 C 52.129 45.21 50.882 46.027 49.241 46.027 C 48.39 45.601 47.534 45.031 46.674 44.32 C 46.188 43.885 45.484 43.207 44.563 42.287 C 43.348 41.089 42.417 40.236 41.775 39.734 C 40.707 39.021 39.573 38.665 38.374 38.665 Z M 31 18.705 C 30.366 18.705 29.831 18.934 29.397 19.395 C 28.964 19.855 28.746 20.406 28.746 21.05 C 28.746 21.683 28.964 22.217 29.397 22.652 C 29.831 23.077 30.366 23.291 31 23.291 C 31.635 23.291 32.169 23.077 32.603 22.652 C 33.036 22.217 33.254 21.683 33.254 21.05 C 33.254 20.406 33.036 19.855 32.603 19.395 C 32.169 18.934 31.635 18.705 31 18.705 Z" style="fill: white;" />
</svg>