<?xml version="1.0" encoding="utf-8"?>
<svg viewBox="0 0 62 62" xmlns="http://www.w3.org/2000/svg">
  <path class="st0" d="M 52.75 37.804 C 51.583 22.225 45.535 14.965 39.273 14.965 C 34.559 14.965 33.042 18.328 31 18.328 C 28.958 18.328 27.436 14.965 22.728 14.965 C 16.465 14.965 10.417 22.225 9.249 37.804 C 8.805 42.736 10.803 45.876 14.024 46.824 C 17.281 47.783 21.26 45.414 24.54 40.649 C 26.002 38.525 28.483 35.668 31 35.668 C 33.517 35.668 35.998 38.525 37.459 40.649 C 40.74 45.414 44.719 47.783 47.976 46.824 C 51.198 45.876 53.195 42.736 52.75 37.804 Z M 26.117 30.694 L 22.955 30.694 L 22.955 33.857 L 19.486 33.857 L 19.486 30.694 L 16.324 30.694 L 16.324 27.226 L 19.486 27.226 L 19.486 24.064 L 22.955 24.064 L 22.955 27.226 L 26.117 27.226 L 26.117 30.694 Z M 36.615 31.15 C 35.605 31.15 34.786 30.332 34.786 29.322 C 34.786 28.312 35.605 27.493 36.615 27.493 C 37.626 27.493 38.445 28.312 38.445 29.322 C 38.445 30.332 37.626 31.15 36.615 31.15 Z M 41.034 35.57 C 40.025 35.57 39.207 34.752 39.207 33.74 C 39.207 32.73 40.025 31.912 41.034 31.912 C 42.045 31.912 42.864 32.73 42.864 33.74 C 42.864 34.752 42.045 35.57 41.034 35.57 Z M 41.034 26.731 C 40.025 26.731 39.207 25.912 39.207 24.902 C 39.207 23.891 40.025 23.073 41.034 23.073 C 42.045 23.073 42.864 23.891 42.864 24.902 C 42.864 25.912 42.045 26.731 41.034 26.731 Z M 45.454 31.15 C 44.444 31.15 43.624 30.332 43.624 29.322 C 43.624 28.312 44.444 27.493 45.454 27.493 C 46.465 27.493 47.283 28.312 47.283 29.322 C 47.283 30.332 46.465 31.15 45.454 31.15 Z" style="fill: rgb(255, 255, 255);"/>
</svg>