<?xml version="1.0" encoding="utf-8"?>
<svg viewBox="0 0 62 62" xmlns="http://www.w3.org/2000/svg">
  <path d="M 9.5 20 L 24 14 L 24 23.883 L 23.409 23.786 L 22.704 24.386 L 9.5 35.618 Z M 24 44 L 20.421 45.481 L 24 41.357 Z M 9.5 50 L 9.5 46.544 L 16.519 40.207 L 18.863 45.749 L 18.353 46.337 Z M 25 14 L 39.5 20 L 39.5 26.406 L 25 24.046 Z M 39.5 50 L 36.5 48.759 L 36.5 43.345 L 39.5 44.227 Z M 25 44 L 25 40.204 L 25.167 40.012 L 35.5 43.051 L 35.5 48.345 Z M 40.5 20 L 52.5 14 L 52.5 15.922 C 51.822 16.843 50.604 18.471 49.851 19.322 C 48.766 20.548 47.666 21.635 46.496 22.641 C 44.236 24.584 42.398 25.765 40.5 26.479 Z M 52.5 44 L 48.5 46 L 48.5 40.939 L 52.5 39.134 Z M 40.5 50 L 40.5 44.521 L 40.537 44.532 L 40.706 44.456 L 47.5 41.39 L 47.5 46.5 Z M 40.671 30.649 L 41.123 30.495 C 43.647 29.638 46.542 27.877 49.104 25.674 C 50.105 24.813 51.353 23.456 52.5 22.126 L 52.5 25.076 L 40.5 33.293 L 40.5 30.621 Z M 48.5 39.841 L 48.5 30.239 L 52.5 27.5 L 52.5 38.036 Z M 36.466 31.512 L 36.31 31.439 L 36.139 31.423 L 25 30.337 L 25 28.099 L 39.5 30.458 L 39.5 32.933 Z M 23.622 30.202 L 23.287 30.543 L 15.782 38.18 L 9.5 43.851 L 9.5 40.869 L 24 28.535 L 24 30.239 Z M 47.5 40.293 L 40.5 43.451 L 40.5 35.609 L 40.593 35.653 L 41.065 35.33 L 47.5 30.924 Z M 36.5 42.303 L 36.5 33.737 L 39.5 35.141 L 39.5 43.185 Z M 35.5 33.37 L 35.5 42.008 L 25.141 38.962 L 25 38.921 L 25 32.347 Z M 19.593 44.909 L 17.3 39.488 L 24 32.671 L 24 39.831 Z" style="fill: rgb(255, 255, 255);"/>
</svg>