<?xml version="1.0" encoding="utf-8"?>
<svg viewBox="0 0 62 62" xmlns="http://www.w3.org/2000/svg">
  <path d="M 28.613 25.709 C 28.613 29.851 25.603 33.209 21.891 33.209 C 18.179 33.209 15.17 29.851 15.17 25.709 C 15.17 21.567 18.179 18.209 21.891 18.209 C 25.603 18.209 28.613 21.567 28.613 25.709 Z M 33.95 39.468 L 34.95 47.889 L 8.833 47.889 L 9.833 39.468 C 10.491 36.237 12.521 33.473 16.071 32.058 C 16.093 32.082 16.114 32.107 16.136 32.131 C 17.532 33.688 19.746 34.791 21.891 34.791 C 24.037 34.791 26.251 33.688 27.647 32.131 C 27.669 32.107 27.69 32.082 27.712 32.058 C 31.262 33.473 33.291 36.237 33.95 39.468 Z M 46.829 21.611 C 46.829 25.753 43.82 29.111 40.108 29.111 C 36.396 29.111 33.386 25.753 33.386 21.611 C 33.386 17.469 36.396 14.111 40.108 14.111 C 43.82 14.111 46.829 17.469 46.829 21.611 Z M 52.166 35.37 L 53.166 43.791 L 35.974 43.791 L 35.44 39.291 C 34.876 36.716 33.406 33.995 31.183 32.301 C 30.753 31.973 30.282 31.668 29.772 31.389 C 30.83 29.933 32.327 28.74 34.288 27.959 C 34.309 27.984 34.331 28.009 34.353 28.033 C 35.748 29.59 37.962 30.693 40.108 30.693 C 42.253 30.693 44.468 29.59 45.863 28.033 C 45.885 28.009 45.906 27.984 45.928 27.96 C 49.478 29.375 51.507 32.139 52.166 35.37 Z" id="path839" style="opacity: 1; vector-effect: none; fill-opacity: 1; stroke: none; stroke-width: 2; stroke-linecap: butt; stroke-linejoin: bevel; stroke-miterlimit: 4; stroke-dasharray: none; stroke-dashoffset: 3.2; stroke-opacity: 1; fill: rgb(255, 255, 255);"/>
</svg>