<?xml version="1.0" encoding="utf-8"?>
<svg viewBox="0 0 62 62" xmlns="http://www.w3.org/2000/svg">
  <path d="M 24 46.645 L 29.25 46.645 L 29.25 41.979 L 32.75 41.979 L 32.75 46.645 L 38 46.645 L 38 50.145 L 24 50.145 Z M 31 11.979 C 34.866 11.979 38 15.113 38 18.979 L 38 32.979 C 38 36.845 34.866 39.979 31 39.979 C 27.134 39.979 24 36.845 24 32.979 L 24 18.979 C 24 15.113 27.134 11.979 31 11.979 Z M 53.367 25.979 C 53.367 29.509 52.492 32.942 50.98 35.977 L 48.35 34.662 C 49.656 32.077 50.367 29.165 50.367 25.979 C 50.367 22.807 49.662 19.906 48.367 17.329 L 50.996 16.014 C 52.498 19.041 53.367 22.462 53.367 25.979 Z M 8.633 25.979 C 8.633 22.462 9.502 19.041 11.004 16.014 L 13.633 17.329 C 12.338 19.906 11.633 22.807 11.633 25.979 C 11.633 29.165 12.344 32.077 13.65 34.663 L 11.02 35.977 C 9.508 32.942 8.633 29.509 8.633 25.979 Z M 46.5 25.979 C 46.5 28.405 45.886 30.795 44.836 32.906 L 42.206 31.591 C 43.049 29.929 43.5 28.061 43.5 25.979 C 43.5 23.911 43.055 22.054 42.223 20.401 L 44.853 19.086 C 45.892 21.189 46.5 23.566 46.5 25.979 Z M 15.5 25.979 C 15.5 23.566 16.108 21.189 17.147 19.086 L 19.777 20.401 C 18.945 22.054 18.5 23.911 18.5 25.979 C 18.5 28.061 18.951 29.929 19.794 31.591 L 17.164 32.906 C 16.114 30.795 15.5 28.405 15.5 25.979 Z" style="fill: rgb(255, 255, 255);"/>
</svg>