<?xml version="1.0" encoding="utf-8"?>
<svg viewBox="0 0 62 62" xmlns="http://www.w3.org/2000/svg">
  <path d="M 39.155 43.156 L 38.682 48.661 L 33.316 50.119 L 30.124 45.616 C 29.468 45.575 28.814 45.49 28.17 45.363 L 23.945 48.92 L 19.118 46.158 L 20.045 40.721 C 19.61 40.228 19.207 39.704 18.844 39.155 L 13.338 38.681 L 11.881 33.316 L 16.384 30.124 C 16.424 29.468 16.509 28.815 16.637 28.169 L 13.08 23.945 L 15.842 19.118 L 21.277 20.046 C 21.771 19.611 22.295 19.209 22.844 18.844 L 23.319 13.338 L 28.684 11.881 L 31.876 16.384 C 32.532 16.424 33.185 16.509 33.829 16.637 L 38.055 13.08 L 42.882 15.842 L 41.956 21.278 C 42.39 21.772 42.792 22.296 43.156 22.845 L 48.66 23.318 L 50.119 28.684 L 45.617 31.875 C 45.576 32.531 45.49 33.186 45.363 33.829 L 48.92 38.056 L 46.158 42.882 L 40.722 41.956 C 40.228 42.39 39.703 42.792 39.155 43.156 Z M 31 22.5 C 26.306 22.5 22.5 26.306 22.5 31 C 22.5 35.694 26.306 39.5 31 39.5 C 35.694 39.5 39.5 35.694 39.5 31 C 39.5 26.306 35.694 22.5 31 22.5 Z M 34.5 31 C 34.5 32.933 32.933 34.5 31 34.5 C 29.067 34.5 27.5 32.933 27.5 31 C 27.5 29.067 29.067 27.5 31 27.5 C 32.933 27.5 34.5 29.067 34.5 31 Z" style="fill: rgb(255, 255, 255);"/>
</svg>