<?xml version="1.0" encoding="utf-8"?>
<svg viewBox="0 0 62 62" xmlns="http://www.w3.org/2000/svg">
  <path d="M 45.05 45.04 L 45.05 16.95 C 45.05 16.017 44.707 15.207 44.02 14.52 C 43.34 13.84 42.504 13.5 41.51 13.5 L 27.46 13.5 L 16.95 24.01 L 16.95 45.04 C 16.95 45.98 17.294 46.79 17.98 47.47 C 18.66 48.157 19.497 48.5 20.49 48.5 L 41.51 48.5 C 42.504 48.5 43.34 48.157 44.02 47.47 C 44.707 46.79 45.05 45.98 45.05 45.04 Z M 25.74 39.78 L 25.74 43.23 L 22.22 43.23 L 22.22 39.78 L 25.74 39.78 Z M 39.78 39.78 L 39.78 43.23 L 36.26 43.23 L 36.26 39.78 L 39.78 39.78 Z M 25.74 29.27 L 25.74 36.26 L 22.22 36.26 L 22.22 29.27 L 25.74 29.27 Z M 32.73 36.26 L 32.73 43.23 L 29.27 43.23 L 29.27 36.26 L 32.73 36.26 Z M 32.73 29.27 L 32.73 32.72 L 29.27 32.72 L 29.27 29.27 L 32.73 29.27 Z M 39.78 29.27 L 39.78 36.26 L 36.26 36.26 L 36.26 29.27 L 39.78 29.27 Z" style="fill: white"/>
</svg>