<?xml version="1.0" encoding="utf-8"?>
<svg viewBox="0 0 62 62" xmlns="http://www.w3.org/2000/svg">
  <path d="M 33.707 14.555 C 33.29 14.138 32.843 13.783 32.362 13.493 C 31.927 12.714 31.405 12.011 30.828 11.434 C 30.548 11.154 30.237 10.886 29.903 10.635 C 31.903 10.874 33.804 11.824 35.121 13.141 C 36.32 14.34 37.216 16.024 37.546 17.826 L 41.592 17.037 L 44.548 19.012 L 48.939 19.15 L 49.256 49.774 L 41.693 52.915 L 10.099 47.334 L 10.227 23.154 L 15.187 22.187 C 15.182 20.559 15.177 18.923 15.177 18.331 C 15.177 15.986 16.212 13.67 17.741 12.141 C 19.27 10.612 21.586 9.577 23.931 9.577 C 26.276 9.577 28.592 10.612 30.121 12.141 C 31.65 13.67 32.685 15.986 32.685 18.331 C 32.685 18.424 32.685 18.577 32.686 18.774 L 35.601 18.205 C 35.379 16.777 34.727 15.576 33.707 14.555 Z M 20.177 19.331 C 20.177 16.986 21.212 14.67 22.741 13.141 C 22.929 12.953 23.13 12.772 23.341 12.599 C 23.53 12.584 23.727 12.577 23.931 12.577 C 24.872 12.577 25.652 12.735 26.353 13.063 C 25.538 13.399 24.809 13.901 24.155 14.555 C 22.878 15.833 22.177 17.394 22.177 19.331 C 22.177 19.62 22.178 20.158 22.18 20.823 L 30.687 19.164 C 30.686 18.776 30.685 18.478 30.685 18.331 C 30.685 16.394 29.984 14.833 28.707 13.555 C 27.429 12.278 25.868 11.577 23.931 11.577 C 21.994 11.577 20.433 12.278 19.155 13.555 C 17.878 14.833 17.177 16.394 17.177 18.331 C 17.177 18.874 17.181 20.303 17.186 21.797 L 20.181 21.213 C 20.179 20.371 20.177 19.675 20.177 19.331 Z M 18.733 36.67 C 18.98 36.916 19.464 37.133 19.848 37.133 C 20.234 37.133 20.717 36.916 20.965 36.67 C 21.212 36.422 21.428 35.939 21.428 35.554 C 21.428 35.169 21.212 34.685 20.965 34.438 C 20.717 34.191 20.234 33.975 19.848 33.975 C 19.464 33.975 18.98 34.192 18.733 34.438 C 18.487 34.685 18.27 35.169 18.27 35.554 C 18.27 35.939 18.487 36.422 18.733 36.67 Z M 18.733 31.407 C 18.98 31.653 19.464 31.87 19.848 31.87 C 20.234 31.87 20.717 31.653 20.965 31.407 C 21.212 31.159 21.428 30.676 21.428 30.291 C 21.428 29.906 21.212 29.422 20.965 29.174 C 20.717 28.929 20.234 28.712 19.848 28.712 C 19.464 28.712 18.98 28.929 18.733 29.174 C 18.487 29.422 18.27 29.906 18.27 30.291 C 18.27 30.676 18.487 31.159 18.733 31.407 Z M 18.733 41.933 C 18.98 42.179 19.464 42.396 19.848 42.396 C 20.234 42.396 20.717 42.179 20.965 41.933 C 21.212 41.685 21.428 41.202 21.428 40.817 C 21.428 40.432 21.212 39.948 20.965 39.701 C 20.717 39.454 20.234 39.238 19.848 39.238 C 19.464 39.238 18.98 39.455 18.733 39.701 C 18.487 39.948 18.27 40.432 18.27 40.817 C 18.27 41.202 18.487 41.685 18.733 41.933 Z M 23.934 36.732 C 24.192 36.99 24.708 37.22 25.112 37.22 C 25.516 37.22 26.032 36.99 26.29 36.732 C 26.548 36.474 26.778 35.958 26.778 35.554 C 26.778 35.15 26.548 34.634 26.29 34.376 C 26.032 34.118 25.516 33.888 25.112 33.888 C 24.708 33.888 24.192 34.118 23.934 34.376 C 23.676 34.634 23.446 35.15 23.446 35.554 C 23.446 35.958 23.676 36.474 23.934 36.732 Z M 23.934 31.066 C 24.192 31.324 24.708 31.554 25.112 31.554 C 25.516 31.554 26.032 31.324 26.29 31.066 C 26.548 30.808 26.778 30.291 26.778 29.888 C 26.778 29.484 26.548 28.967 26.29 28.71 C 26.032 28.452 25.516 28.221 25.112 28.221 C 24.708 28.221 24.192 28.452 23.934 28.71 C 23.676 28.967 23.446 29.484 23.446 29.888 C 23.446 30.291 23.676 30.808 23.934 31.066 Z M 23.934 42.47 C 24.192 42.727 24.708 42.958 25.112 42.958 C 25.516 42.958 26.032 42.727 26.29 42.47 C 26.548 42.211 26.778 41.695 26.778 41.292 C 26.778 40.888 26.548 40.372 26.29 40.113 C 26.032 39.856 25.516 39.625 25.112 39.625 C 24.708 39.625 24.192 39.856 23.934 40.113 C 23.676 40.372 23.446 40.888 23.446 41.292 C 23.446 41.695 23.676 42.211 23.934 42.47 Z M 30.013 36.793 C 30.281 37.062 30.831 37.308 31.253 37.308 C 31.673 37.308 32.224 37.062 32.492 36.793 C 32.761 36.525 33.007 35.975 33.007 35.554 C 33.007 35.133 32.761 34.583 32.492 34.314 C 32.224 34.045 31.673 33.799 31.253 33.799 C 30.831 33.799 30.281 34.045 30.013 34.314 C 29.744 34.583 29.498 35.133 29.498 35.554 C 29.498 35.975 29.744 36.525 30.013 36.793 Z M 30.013 30.653 C 30.281 30.922 30.831 31.168 31.253 31.168 C 31.673 31.168 32.224 30.922 32.492 30.653 C 32.761 30.385 33.007 29.835 33.007 29.413 C 33.007 28.993 32.761 28.442 32.492 28.174 C 32.224 27.905 31.673 27.659 31.253 27.659 C 30.831 27.659 30.281 27.905 30.013 28.174 C 29.744 28.442 29.498 28.993 29.498 29.413 C 29.498 29.835 29.744 30.385 30.013 30.653 Z M 30.013 42.933 C 30.281 43.203 30.831 43.449 31.253 43.449 C 31.673 43.449 32.224 43.203 32.492 42.933 C 32.761 42.665 33.007 42.115 33.007 41.694 C 33.007 41.273 32.761 40.723 32.492 40.455 C 32.224 40.185 31.673 39.939 31.253 39.939 C 30.831 39.939 30.281 40.185 30.013 40.455 C 29.744 40.723 29.498 41.273 29.498 41.694 C 29.498 42.115 29.744 42.665 30.013 42.933 Z" style="fill: rgb(255, 255, 255);"/>
</svg>