<?xml version="1.0" encoding="utf-8"?>
<svg viewBox="0 0 62 62" xmlns="http://www.w3.org/2000/svg">
  <path d="M 53 20.6 L 53 46.9 L 43.239 46.853 L 43.239 20.584 L 53 20.6 Z M 22.025 20.584 L 22.025 17.321 C 22.025 15.517 23.487 14.056 25.289 14.056 L 36.711 14.056 C 38.512 14.056 39.975 15.517 39.975 17.321 L 39.975 46.853 L 22.025 46.853 L 22.025 20.584 Z M 25.289 20.584 L 36.711 20.584 C 36.711 20.584 36.711 19.852 36.711 18.952 C 36.711 18.05 35.981 17.321 35.079 17.321 L 26.92 17.321 C 26.018 17.321 25.289 18.05 25.289 18.952 C 25.289 19.852 25.289 20.584 25.289 20.584 Z M 9 46.9 L 9 20.6 L 18.761 20.584 L 18.761 46.853 L 9 46.9 Z" style="fill: rgb(255, 255, 255);"/>
</svg>