<?xml version="1.0" encoding="utf-8"?>
<svg viewBox="0 0 62 62" xmlns="http://www.w3.org/2000/svg">
  <path d="M 34.048 50.465 C 33.858 50.488 33.669 50.5 33.477 50.5 C 33.42 50.5 33.364 50.494 33.307 50.492 C 33.206 50.494 33.103 50.5 33 50.5 C 25.254 50.5 18.668 45.443 16.371 38.457 C 16.267 38.703 16.168 38.949 16.075 39.192 C 15.266 41.296 14.897 43.059 14.937 44.648 C 14.976 46.178 15.289 47.082 16.102 47.895 C 16.916 48.709 17.82 49.022 19.349 49.061 C 20.278 49.084 21.267 48.968 22.348 48.706 C 23.497 49.477 24.746 50.134 26.062 50.655 C 26.001 50.679 25.941 50.702 25.881 50.725 C 23.552 51.62 21.205 52.109 19.273 52.06 C 17.28 52.009 15.252 51.287 13.981 50.016 C 12.71 48.746 11.989 46.717 11.938 44.724 C 11.889 42.792 12.379 40.446 13.274 38.116 C 13.839 36.645 14.59 35.096 15.507 33.513 C 15.502 33.343 15.5 33.172 15.5 33.001 C 15.5 23.351 23.35 15.5 33 15.5 C 33.104 15.5 33.206 15.505 33.307 15.507 C 33.364 15.505 33.42 15.5 33.477 15.5 C 33.494 15.5 33.511 15.5 33.528 15.5 C 35.108 14.587 36.652 13.838 38.119 13.275 C 40.449 12.38 42.795 11.891 44.727 11.94 C 46.72 11.991 48.749 12.713 50.019 13.983 C 51.29 15.254 52.012 17.283 52.062 19.276 C 52.111 21.208 51.621 23.554 50.726 25.883 C 50.703 25.942 50.68 26.002 50.657 26.062 C 50.136 24.744 49.479 23.495 48.708 22.347 C 48.97 21.267 49.086 20.28 49.063 19.352 C 49.024 17.822 48.711 16.918 47.898 16.105 C 47.085 15.291 46.18 14.978 44.651 14.939 C 43.062 14.899 41.299 15.267 39.195 16.076 C 38.95 16.17 38.703 16.269 38.454 16.374 C 45.442 18.67 50.5 25.255 50.5 33.001 C 50.5 42.298 43.213 49.922 34.048 50.465 Z M 48.322 33.001 C 48.322 30.914 47.902 28.924 47.143 27.11 L 47.549 28.258 C 47.451 28.294 45.971 28.801 42.593 29.206 C 42.733 30.426 42.808 31.692 42.808 33.001 C 42.808 34.659 42.688 36.256 42.467 37.766 C 45.132 38.08 46.643 38.46 47.245 38.634 C 47.938 36.889 48.322 34.989 48.322 33.001 Z M 25.273 33.001 C 25.273 34.573 25.404 36.101 25.644 37.543 C 27.385 37.408 29.454 37.309 31.877 37.287 L 31.877 29.697 C 29.388 29.675 27.272 29.571 25.503 29.432 C 25.353 30.58 25.273 31.775 25.273 32.999 Z M 34.056 27.52 C 36.413 27.497 38.4 27.4 40.051 27.27 C 39.132 22.847 37.196 19.398 34.878 18.169 C 34.605 18.328 34.331 18.492 34.056 18.662 Z M 25.871 27.271 C 27.549 27.399 29.545 27.495 31.878 27.519 L 31.878 20.106 C 30.151 21.331 28.407 22.759 26.687 24.378 C 26.366 25.28 26.091 26.25 25.871 27.271 Z M 31.877 39.467 C 29.65 39.491 27.728 39.577 26.099 39.698 C 27.231 44.087 29.407 47.354 31.878 48.139 L 31.878 39.467 Z M 39.828 39.705 C 38.22 39.579 36.306 39.49 34.056 39.467 L 34.056 48.168 C 36.553 47.444 38.716 44.153 39.828 39.705 Z M 34.056 37.287 C 36.49 37.309 38.55 37.409 40.269 37.549 C 40.501 36.105 40.628 34.577 40.628 32.999 C 40.628 31.774 40.549 30.577 40.407 29.425 C 38.66 29.57 36.557 29.676 34.056 29.698 Z M 46.742 26.23 C 45.138 22.989 42.424 20.395 39.096 18.945 C 40.543 20.97 41.656 23.772 42.272 27.052 C 45.034 26.726 46.412 26.334 46.741 26.23 Z M 27.773 18.599 C 24.008 19.968 20.929 22.775 19.198 26.35 C 19.448 26.411 19.856 26.502 20.429 26.608 C 21.355 25.519 22.346 24.443 23.395 23.394 C 24.316 22.473 25.257 21.598 26.21 20.771 C 26.693 19.966 27.218 19.238 27.775 18.597 Z M 18.389 28.392 C 18.262 28.792 18.152 29.2 18.058 29.613 C 18.325 29.247 18.6 28.881 18.882 28.516 C 18.652 28.462 18.488 28.419 18.389 28.392 Z M 18.711 38.513 C 19.411 38.344 20.973 38.015 23.511 37.74 C 23.24 36.238 23.092 34.65 23.092 33.001 C 23.092 31.702 23.184 30.44 23.354 29.23 C 22.96 29.187 22.59 29.142 22.245 29.097 C 20.486 31.214 19.021 33.339 17.87 35.399 C 18.042 36.478 18.327 37.52 18.711 38.513 Z M 19.666 40.532 C 21.454 43.686 24.325 46.148 27.775 47.403 C 26.159 45.545 24.812 42.951 23.983 39.884 C 21.88 40.105 20.459 40.363 19.666 40.531 Z M 46.278 40.63 C 45.594 40.457 44.236 40.165 42.073 39.917 C 41.431 42.78 40.399 45.232 39.095 47.054 C 42.122 45.736 44.642 43.469 46.278 40.63 Z" style="fill: rgb(255, 255, 255);"/>
</svg>