<?xml version="1.0" encoding="utf-8"?>
<svg viewBox="0 0 62 62" xmlns="http://www.w3.org/2000/svg">
  <path d="M 11 19 L 13.5 19 C 13.776 19 14 18.776 14 18.5 L 14 17.538 C 14 17.241 14.241 17 14.538 17 L 20.462 17 C 20.759 17 21 17.241 21 17.538 L 21 18.5 C 21 18.776 21.224 19 21.5 19 L 51 19 C 52.105 19 53 19.895 53 21 L 53 43 C 53 44.105 52.105 45 51 45 L 11 45 C 9.895 45 9 44.105 9 43 L 9 21 C 9 19.895 9.895 19 11 19 Z M 43 24 L 50 24 L 50 21 L 43 21 Z M 38.259 25.741 C 36.456 23.938 33.763 22.734 31 22.734 C 28.237 22.734 25.544 23.938 23.741 25.741 C 21.938 27.544 20.734 30.237 20.734 33 C 20.734 35.763 21.938 38.456 23.741 40.259 C 25.544 42.062 28.237 43.266 31 43.266 C 33.763 43.266 36.456 42.062 38.259 40.259 C 40.062 38.456 41.266 35.763 41.266 33 C 41.266 30.237 40.062 27.544 38.259 25.741 Z M 39.266 33 C 39.266 35.354 38.396 37.294 36.845 38.845 C 35.294 40.396 33.354 41.266 31 41.266 C 28.646 41.266 26.706 40.396 25.155 38.845 C 23.604 37.294 22.734 35.354 22.734 33 C 22.734 30.646 23.604 28.706 25.155 27.155 C 26.706 25.604 28.646 24.734 31 24.734 C 33.354 24.734 35.294 25.604 36.845 27.155 C 38.396 28.706 39.266 30.646 39.266 33 Z M 31 27 C 27.686 27 25 29.686 25 33 C 25 36.314 27.686 39 31 39 C 34.314 39 37 36.314 37 33 C 37 29.686 34.314 27 31 27 Z" style="fill: rgb(255, 255, 255);"/>
</svg>