<?xml version="1.0" encoding="utf-8"?>
<svg viewBox="0 0 62 62" xmlns="http://www.w3.org/2000/svg">
  <path d="M 10.5 14.352 L 23.306 14.352 L 26.486 17.571 L 23.463 21 L 10.5 20.995 Z M 51.5 18.72 L 51.491 45.053 L 45.56 45.06 L 45.56 35.493 C 45.516 34.184 44.945 32.807 44.096 31.957 C 43.246 31.108 41.869 30.537 40.56 30.493 L 21.441 30.493 C 20.132 30.537 18.755 31.108 17.905 31.957 C 17.056 32.807 16.485 34.184 16.441 35.493 L 16.441 45.095 L 10.5 45.102 L 10.5 22.995 L 23.914 23 L 24.365 23 L 24.664 22.661 L 27.981 18.899 Z M 18.441 46.649 L 18.441 35.493 C 18.397 34.593 18.722 33.97 19.32 33.372 C 19.918 32.774 20.541 32.449 21.441 32.493 L 40.56 32.493 C 41.46 32.449 42.083 32.774 42.681 33.372 C 43.279 33.97 43.604 34.593 43.56 35.493 L 43.56 46.649 L 38.318 46.649 L 38.318 37.645 L 23.683 37.645 L 23.683 46.649 Z M 25.683 39.645 L 36.318 39.645 L 36.318 45.087 L 25.683 45.099 Z" style="fill: rgb(255, 255, 255);"/>
</svg>