<?xml version="1.0" encoding="utf-8"?>
<svg viewBox="0 0 62 62" xmlns="http://www.w3.org/2000/svg">
  <path d="M 18 10.984 L 44 10.984 C 44.552 10.984 45 11.432 45 11.984 L 45 50.016 C 45 50.568 44.552 51.016 44 51.016 L 18 51.016 C 17.448 51.016 17 50.568 17 50.016 L 17 11.984 C 17 11.432 17.448 10.984 18 10.984 Z M 36.674 15.783 C 33.905 15.783 31.66 18.554 31.66 21.681 C 31.66 23.585 32.555 25.263 33.649 26.309 C 34.609 27.227 35.199 27.934 35.317 29.468 L 35.317 45.683 C 35.317 46.384 35.886 46.953 36.588 46.953 L 36.76 46.953 C 37.461 46.953 38.031 46.384 38.031 45.683 L 38.031 29.467 C 38.148 27.934 38.738 27.227 39.699 26.309 C 40.793 25.263 41.688 23.585 41.688 21.681 C 41.688 18.554 39.442 15.783 36.674 15.783 Z M 27.699 16.985 L 27.699 22.34 C 27.699 22.682 27.422 22.96 27.08 22.96 L 26.914 22.96 C 26.573 22.96 26.295 22.682 26.295 22.34 L 26.295 16.96 C 26.295 16.078 25.702 15.813 25.132 15.813 C 24.562 15.813 23.969 16.078 23.969 16.96 L 23.969 22.34 C 23.969 22.682 23.691 22.96 23.349 22.96 L 23.184 22.96 C 22.842 22.96 22.565 22.682 22.565 22.34 L 22.565 16.985 C 22.565 15.405 20.312 15.458 20.312 17.002 C 20.312 18.851 20.312 22.116 20.312 22.116 C 20.302 24.956 20.98 25.693 22.1 26.578 C 23.003 27.291 23.775 27.698 23.775 29.468 L 23.775 45.683 C 23.775 46.384 24.344 46.953 25.046 46.953 L 25.218 46.953 C 25.92 46.953 26.489 46.384 26.489 45.683 L 26.489 29.468 C 26.489 27.698 27.26 27.291 28.163 26.578 C 29.284 25.693 29.962 24.956 29.952 22.116 C 29.952 22.116 29.952 18.851 29.952 17.002 C 29.952 15.458 27.699 15.405 27.699 16.985 Z" style="fill: rgb(255, 255, 255);"/>
</svg>