
        <svg viewBox="0 0 62 62" xmlns="http://www.w3.org/2000/svg">
          <path d="M48.50 25.17L40.67 31.95L42.98 42.02L34.20 36.65L25.33 42.02L27.63 31.95L19.87 25.17L30.16 24.28L34.20 14.81L38.21 24.28L48.50 25.17ZM15.11 32.99L15.11 32.99Q15.55 32.99 15.93 32.77L15.93 32.77L21.07 29.42L18.54 27.25L14.22 30.09Q13.69 30.46 13.54 31.10Q13.40 31.73 13.77 32.33L13.77 32.33Q14.29 32.99 15.11 32.99ZM13.77 47.54L13.77 47.54Q14.22 48.20 15.11 48.20L15.11 48.20Q15.55 48.20 15.93 47.98L15.93 47.98L22.49 43.66L23.00 41.49L23.53 39.18L14.22 45.30Q13.69 45.67 13.54 46.31Q13.40 46.94 13.77 47.54ZM23.53 31.51L14.22 37.69Q13.69 38.07 13.54 38.70Q13.40 39.33 13.77 39.93L13.77 39.93Q14.22 40.60 15.11 40.60L15.11 40.60Q15.55 40.60 15.93 40.38L15.93 40.38L24.57 34.72L25.02 32.86L23.53 31.51Z" style="fill: white"></path>
        </svg>
      