<?xml version="1.0" encoding="utf-8"?>
<svg viewBox="0 0 62 62" xmlns="http://www.w3.org/2000/svg">
  <path d="M 31 17.109 C 40.779 6.949 52.731 14.445 52.731 25.012 C 52.731 35.58 43.997 41.211 37.604 46.251 C 35.346 48.031 33.174 49.705 31 49.705 C 28.827 49.705 26.655 48.031 24.399 46.251 C 19.457 42.356 13.117 38.108 10.491 31.5 L 20.373 31.5 L 20.479 31.142 L 23.024 22.577 L 28.525 39.356 L 28.982 40.75 L 29.471 39.367 L 33.113 29.079 L 35.569 33.253 L 35.714 33.5 L 42.063 33.5 C 42.285 34.363 43.068 35 44 35 C 45.105 35 46 34.105 46 33 C 46 31.895 45.105 31 44 31 C 43.068 31 42.285 31.637 42.063 32.5 L 36.286 32.5 L 33.431 27.646 L 32.887 26.721 L 32.529 27.733 L 29.018 37.65 L 23.475 20.744 L 22.976 19.223 L 22.521 20.758 L 19.627 30.5 L 10.129 30.5 C 9.581 28.827 9.269 27.008 9.269 25.012 C 9.269 14.445 21.223 6.949 31 17.109 Z" style="fill: rgb(255, 255, 255);"/>
</svg>