<?xml version="1.0" encoding="utf-8"?>
<svg viewBox="0 0 62 62" xmlns="http://www.w3.org/2000/svg">
  <path class="st0" d="M 26.098 48.775 C 26.417 50.938 24.925 52.948 22.765 53.268 C 20.602 53.589 18.592 52.097 18.272 49.936 L 18.126 48.955 C 17.244 49.013 16.45 48.393 16.318 47.504 L 15.656 43.039 C 15.524 42.149 16.105 41.326 16.965 41.125 L 16.745 39.638 C 16.424 37.476 17.917 35.463 20.078 35.145 C 22.239 34.824 24.25 36.315 24.572 38.477 Z M 46.344 43.039 L 45.682 47.504 C 45.55 48.393 44.756 49.012 43.874 48.955 L 43.728 49.935 C 43.409 52.097 41.398 53.589 39.235 53.268 C 37.075 52.948 35.583 50.938 35.902 48.775 L 37.428 38.477 C 37.75 36.315 39.761 34.824 41.922 35.145 C 44.083 35.463 45.576 37.476 45.256 39.638 L 45.035 41.125 C 45.895 41.326 46.476 42.149 46.344 43.039 Z M 52.91 31.97 C 52.91 32.719 52.882 33.48 52.824 34.252 C 52.367 40.466 51.263 45.405 50.799 47.488 L 47.284 46.706 C 47.742 44.654 48.795 39.93 49.234 33.987 C 49.284 33.302 49.309 32.63 49.309 31.97 C 49.305 26.067 47.349 21.17 44.125 17.737 C 40.893 14.309 36.386 12.297 31 12.289 C 25.613 12.297 21.107 14.308 17.875 17.737 C 14.651 21.17 12.694 26.067 12.691 31.97 C 12.691 32.63 12.716 33.302 12.766 33.986 C 13.205 39.93 14.258 44.654 14.716 46.706 L 11.201 47.488 C 10.737 45.405 9.633 40.466 9.176 34.252 C 9.118 33.481 9.09 32.719 9.09 31.97 C 9.087 25.271 11.342 19.428 15.251 15.271 C 19.153 11.109 24.7 8.68 31 8.688 C 37.3 8.68 42.847 11.109 46.749 15.271 C 50.658 19.428 52.913 25.271 52.91 31.97 Z" style="fill: rgb(255, 255, 255);"/>
</svg>