<?xml version="1.0" encoding="utf-8"?>
<svg viewBox="0 0 62 62" xmlns="http://www.w3.org/2000/svg" xmlns:bx="https://boxy-svg.com">
  <path style="fill: rgb(255, 255, 255);" d="M 50.6 18.71 H 51.6 A 1 1 0 0 1 52.6 19.71 V 46.71 A 1 1 0 0 1 51.6 47.71 H 50.6 V 18.71 Z" bx:shape="rect 50.6 18.71 2 29 0 1 1 0 1@b8eb52bf"/>
  <path d="M 11.148 14.71 L 47.148 14.71 C 48.253 14.71 49.148 15.605 49.148 16.71 L 49.148 45.71 C 49.148 46.815 48.253 47.71 47.148 47.71 L 11.148 47.71 C 10.043 47.71 9.148 46.815 9.148 45.71 L 9.148 16.71 C 9.148 15.605 10.043 14.71 11.148 14.71 Z M 31.643 30.268 L 42.019 30.268 L 42.019 26.612 L 31.643 26.612 Z M 12.951 23.256 L 45.344 23.256 L 45.344 19.841 L 12.951 19.841 Z M 12.951 42.58 L 28.643 42.58 L 28.643 26.256 L 12.951 26.256 Z M 31.643 36.456 L 45.344 36.456 L 45.344 32.8 L 31.643 32.8 Z M 31.643 42.58 L 45.344 42.58 L 45.344 38.924 L 31.643 38.924 Z" style="fill: rgb(255, 255, 255);"/>
</svg>