<?xml version="1.0" encoding="utf-8"?>
<svg viewBox="0 0 62 62" xmlns="http://www.w3.org/2000/svg">
  <path d="M 38.645 36.174 L 37.667 37.146 C 37.667 37.146 35.338 39.461 28.986 33.145 C 22.633 26.827 24.96 24.512 24.96 24.512 L 25.577 23.9 C 27.095 22.389 27.239 19.964 25.914 18.193 L 23.202 14.573 C 21.562 12.381 18.392 12.092 16.513 13.962 L 13.138 17.317 C 12.205 18.244 11.581 19.445 11.657 20.778 C 11.851 24.189 13.393 31.525 22.003 40.088 C 31.134 49.166 39.701 49.526 43.204 49.2 C 44.312 49.096 45.276 48.533 46.051 47.76 L 49.106 44.724 C 51.168 42.674 50.586 39.159 47.949 37.726 L 43.841 35.493 C 42.109 34.551 39.999 34.828 38.645 36.174 Z" style="fill: rgb(255, 255, 255);" transform="matrix(0.927184, 0.374606, -0.374606, 0.927184, 13.870158, -9.355526)"/>
</svg>