<?xml version="1.0" encoding="utf-8"?>
<svg viewBox="0 0 62 62" xmlns="http://www.w3.org/2000/svg">
  <path d="M 19.19 22.19 L 20.677 22.19 C 20.841 22.19 20.975 22.057 20.975 21.893 L 20.975 21.32 C 20.975 21.144 21.118 21 21.295 21 L 24.819 21 C 24.996 21 25.139 21.144 25.139 21.32 L 25.139 21.893 C 25.139 22.057 25.272 22.19 25.436 22.19 L 42.986 22.19 C 43.644 22.19 44.176 22.723 44.176 23.38 L 44.176 36.468 C 44.176 37.126 43.644 37.658 42.986 37.658 L 19.19 37.658 C 18.532 37.658 18 37.126 18 36.468 L 18 23.38 C 18 22.723 18.532 22.19 19.19 22.19 Z M 38.227 25.165 L 42.391 25.165 L 42.391 23.38 L 38.227 23.38 Z M 35.407 26.201 C 34.334 25.128 32.732 24.412 31.088 24.412 C 29.444 24.412 27.842 25.128 26.77 26.201 C 25.697 27.273 24.981 28.875 24.981 30.519 C 24.981 32.163 25.697 33.765 26.77 34.838 C 27.842 35.91 29.444 36.626 31.088 36.626 C 32.732 36.626 34.334 35.91 35.407 34.838 C 36.479 33.765 37.196 32.163 37.196 30.519 C 37.196 28.875 36.479 27.273 35.407 26.201 Z M 36.006 30.519 C 36.006 31.919 35.488 33.074 34.565 33.996 C 33.643 34.919 32.489 35.437 31.088 35.437 C 29.688 35.437 28.534 34.919 27.611 33.996 C 26.688 33.074 26.171 31.919 26.171 30.519 C 26.171 29.119 26.688 27.964 27.611 27.042 C 28.534 26.119 29.688 25.601 31.088 25.601 C 32.489 25.601 33.643 26.119 34.565 27.042 C 35.488 27.964 36.006 29.119 36.006 30.519 Z M 31.088 26.95 C 29.117 26.95 27.519 28.547 27.519 30.519 C 27.519 32.491 29.117 34.089 31.088 34.089 C 33.06 34.089 34.658 32.491 34.658 30.519 C 34.658 28.547 33.06 26.95 31.088 26.95 Z M 14 10 L 48 10 C 49.105 10 50 10.895 50 12 L 50 50 C 50 51.105 49.105 52 48 52 L 14 52 C 12.895 52 12 51.105 12 50 L 12 12 C 12 10.895 12.895 10 14 10 Z M 15 43 L 47 43 L 47 16 L 15 16 Z" style="fill: rgb(255, 255, 255);"/>
</svg>