<?xml version="1.0" encoding="utf-8"?>
<svg viewBox="0 0 62 62" xmlns="http://www.w3.org/2000/svg">
  <path d="M 16.959 16.19 L 16.928 16.19 C 16.376 16.19 15.928 15.742 15.928 15.19 L 15.928 13.19 C 15.928 12.638 16.376 12.19 16.928 12.19 L 17.928 12.19 C 18.48 12.19 18.928 12.638 18.928 13.19 L 18.928 15.19 C 18.928 15.732 18.497 16.173 17.959 16.19 L 17.994 23 L 48 23 L 48 44 C 48 44.552 47.552 45 47 45 L 15 45 C 14.448 45 14 44.552 14 44 L 14 24 C 14 23.448 14.448 23 15 23 L 16.994 23 Z M 23 27 C 19.134 27 16 30.134 16 34 C 16 37.866 19.134 41 23 41 C 26.866 41 30 37.866 30 34 C 30 30.134 26.866 27 23 27 Z M 28.868 27.244 C 29.017 27.371 29.158 27.502 29.292 27.636 C 30.811 29.155 31.928 31.658 31.928 34 C 31.928 34.389 31.897 34.782 31.839 35.175 L 45 35.175 C 45.552 35.175 46 34.727 46 34.175 L 46 27.753 C 46 27.337 45.663 27 45.247 27 L 29.523 27 C 29.273 27 29.044 27.092 28.868 27.244 Z M 40 31 C 40 31.552 39.552 32 39 32 C 38.448 32 38 31.552 38 31 C 38 30.448 38.448 30 39 30 C 39.552 30 40 30.448 40 31 Z M 44 31 C 44 31.552 43.552 32 43 32 C 42.448 32 42 31.552 42 31 C 42 30.448 42.448 30 43 30 C 43.552 30 44 30.448 44 31 Z M 36 31 C 36 31.552 35.552 32 35 32 C 34.448 32 34 31.552 34 31 C 34 30.448 34.448 30 35 30 C 35.552 30 36 30.448 36 31 Z M 25.421 34 C 25.421 35.392 24.292 36.521 22.9 36.521 C 21.508 36.521 20.379 35.392 20.379 34 C 20.379 32.608 21.508 31.479 22.9 31.479 C 24.292 31.479 25.421 32.608 25.421 34 Z" style="fill: rgb(255, 255, 255);"/>
</svg>