<?xml version="1.0" encoding="utf-8"?>
<svg viewBox="0 0 62 62" xmlns="http://www.w3.org/2000/svg">
  <path d="M 53.987 14.58 L 53.987 19.178 C 53.987 26.403 48.24 32.149 41.18 32.642 C 39.866 34.284 38.06 35.762 35.926 36.583 L 35.926 42.9 L 26.074 42.9 L 26.074 36.419 C 23.939 35.598 22.133 34.284 20.819 32.478 C 13.595 32.149 8.012 26.238 8.012 19.014 L 8.012 14.58 C 8.012 13.595 8.669 12.938 9.654 12.938 L 17.864 12.938 L 17.864 11.296 C 17.864 10.311 18.521 9.654 19.506 9.654 L 42.494 9.654 C 43.479 9.654 44.136 10.311 44.136 11.296 L 44.136 12.938 L 52.345 12.938 C 53.331 12.938 53.987 13.595 53.987 14.58 Z M 40.852 52.346 L 21.148 52.346 C 21.102 52.302 23.213 44.583 23.417 43.9 L 38.583 43.9 C 38.787 44.583 40.898 52.302 40.852 52.346 Z M 18.685 28.866 C 18.192 27.552 17.864 26.074 17.864 24.432 L 17.864 16.222 L 11.296 16.222 L 11.296 19.014 C 11.296 23.775 14.416 27.716 18.685 28.866 Z M 50.703 16.222 L 44.136 16.222 L 44.136 24.432 C 44.136 26.074 43.807 27.552 43.315 28.866 C 47.584 27.552 50.703 23.611 50.703 19.014 Z" style="fill: rgb(255, 255, 255);"/>
</svg>