<svg width="62" height="62" viewBox="0 0 62 62" fill="none" xmlns="http://www.w3.org/2000/svg">
<path fill-rule="evenodd" clip-rule="evenodd" d="M32.362 13.493C32.843 13.783 33.29 14.138 33.707 14.555C34.727 15.576 35.379 16.777 35.601 18.205L32.686 18.774C32.685 18.577 32.685 18.424 32.685 18.331C32.685 15.986 31.65 13.67 30.121 12.141C28.592 10.612 26.276 9.577 23.931 9.577C21.586 9.577 19.27 10.612 17.741 12.141C16.212 13.67 15.177 15.986 15.177 18.331C15.177 18.923 15.182 20.559 15.187 22.187L10.227 23.154L10.099 47.334L41.693 52.915L49.256 49.774L48.939 19.15L44.548 19.012L41.592 17.037L37.546 17.826C37.216 16.024 36.32 14.34 35.121 13.141C33.804 11.824 31.903 10.874 29.903 10.635C30.237 10.886 30.548 11.154 30.828 11.434C31.405 12.011 31.927 12.714 32.362 13.493ZM22.741 13.141C21.212 14.67 20.177 16.986 20.177 19.331C20.177 19.5914 20.1781 20.0534 20.1796 20.6277C20.18 20.8122 20.1805 21.0083 20.181 21.213L17.186 21.797C17.181 20.303 17.177 18.874 17.177 18.331C17.177 16.394 17.878 14.833 19.155 13.555C20.433 12.278 21.994 11.577 23.931 11.577C25.868 11.577 27.429 12.278 28.707 13.555C29.984 14.833 30.685 16.394 30.685 18.331C30.685 18.4335 30.6855 18.6095 30.6861 18.8383C30.6864 18.9375 30.6867 19.0466 30.687 19.164L22.18 20.823C22.178 20.158 22.177 19.62 22.177 19.331C22.177 17.394 22.878 15.833 24.155 14.555C24.809 13.901 25.538 13.399 26.353 13.063C25.652 12.735 24.872 12.577 23.931 12.577C23.727 12.577 23.53 12.584 23.341 12.599C23.13 12.772 22.929 12.953 22.741 13.141ZM20.8855 27.0684C20.4204 26.8125 19.8991 26.8644 19.5082 27.115C19.1507 27.3441 18.9 27.7411 18.9 28.2226V43.1111C18.9 43.5216 19.0824 43.8711 19.3581 44.1072C19.7583 44.4498 20.3581 44.5555 20.8858 44.2651L31.0008 38.6987L34.4137 36.8206C35.3287 36.3172 35.3287 35.0161 34.4137 34.5126L30.8432 32.5478L20.8855 27.0684Z" fill="white"/>
<path d="M19 45L28.5148 35.9253M28.5148 35.9253L19.1567 27M28.5148 35.9253L32 39.2038M28.5148 35.9253L31.8223 32.8135" stroke="white" stroke-width="0.8"/>
</svg>
