<?xml version="1.0" encoding="utf-8"?>
<svg viewBox="0 0 62 62" xmlns="http://www.w3.org/2000/svg">
  <path d="M 17.533 27.549 C 13.77 27.549 11.033 27.549 11.033 27.549 L 29.681 21.811 L 25.918 24.969 Z M 43.289 13.476 L 46.377 17.157 L 33.992 27.549 L 25.035 27.549 L 41.943 13.361 C 42.348 13.021 42.951 13.073 43.289 13.476 Z M 47.23 18.173 L 53.073 25.136 C 53.409 25.537 53.357 26.139 52.951 26.48 L 40.033 37.319 L 40.033 29.549 C 40.033 28.445 39.137 27.549 38.033 27.549 L 36.056 27.549 Z M 39.064 30.549 L 39.064 50.549 C 39.064 51.653 38.168 52.549 37.064 52.549 L 11.064 52.549 C 9.96 52.549 9.064 51.653 9.064 50.549 L 9.064 28.549 L 37.064 28.549 C 38.168 28.549 39.064 29.445 39.064 30.549 Z" id="path-1" style="fill: rgb(255, 255, 255);" stroke="none" stroke-width="1" fill-rule="evenodd"/>
</svg>