<?xml version="1.0" encoding="utf-8"?>
<svg viewBox="0 0 62 62" xmlns="http://www.w3.org/2000/svg">
  <path d="M 11.439 29.771 L 16.708 29.771 L 16.708 32.23 L 11.439 32.23 L 11.439 29.771 Z M 45.294 29.771 L 50.561 29.771 L 50.561 32.23 L 45.294 32.23 L 45.294 29.771 Z M 18.007 37.081 L 19.237 39.212 L 14.674 41.846 L 13.445 39.715 L 18.007 37.081 Z M 43.993 24.919 L 42.764 22.789 L 47.326 20.154 L 48.556 22.284 L 43.993 24.919 Z M 22.789 42.764 L 24.92 43.993 L 22.285 48.556 L 20.155 47.326 L 22.789 42.764 Z M 39.212 19.237 L 37.082 18.007 L 39.715 13.445 L 41.847 14.674 L 39.212 19.237 Z M 29.771 45.293 L 32.231 45.293 L 32.231 50.561 L 29.771 50.561 L 29.771 45.293 Z M 29.771 11.439 L 32.231 11.439 L 32.231 16.707 L 29.771 16.707 L 29.771 11.439 Z M 39.212 42.764 L 41.847 47.326 L 39.715 48.556 L 37.082 43.993 L 39.212 42.764 Z M 22.789 19.237 L 20.155 14.674 L 22.285 13.445 L 24.92 18.007 L 22.789 19.237 Z M 43.993 37.081 L 48.556 39.715 L 47.326 41.846 L 42.764 39.212 L 43.993 37.081 Z M 18.007 24.919 L 13.445 22.284 L 14.674 20.154 L 19.237 22.789 L 18.007 24.919 Z M 42.927 31 C 42.927 37.587 37.587 42.926 31.001 42.926 C 24.414 42.926 19.075 37.587 19.075 31 C 19.075 24.414 24.414 19.074 31.001 19.074 C 37.587 19.074 42.927 24.414 42.927 31 Z" class="st0" style="fill: rgb(255, 255, 255);"/>
</svg>